<svg xmlns="http://www.w3.org/2000/svg" fill="none" viewBox="0 0 16 16">
  <g clip-path="url(#docker-a)">
    <path fill="#008FE2" d="M9.32 7.387h1.413a.127.127 0 0 0 .127-.127V6.007a.13.13 0 0 0-.078-.117.1.1 0 0 0-.049-.01H9.32A.12.12 0 0 0 9.2 6v1.267c0 .066.053.12.12.12m-1.967-3.62h1.414a.127.127 0 0 0 .12-.127V2.38a.13.13 0 0 0-.12-.12H7.353a.12.12 0 0 0-.126.12v1.267c0 .066.06.12.126.12m0 1.806h1.414a.13.13 0 0 0 .12-.12v-1.26a.13.13 0 0 0-.12-.12H7.353a.12.12 0 0 0-.126.12v1.26c0 .067.06.12.126.12m-1.953 0h1.413a.13.13 0 0 0 .12-.12v-1.26a.12.12 0 0 0-.12-.12H5.4a.12.12 0 0 0-.12.12v1.26c0 .067.053.12.12.12m-1.973 0h1.406a.127.127 0 0 0 .127-.12v-1.26a.12.12 0 0 0-.127-.12H3.427a.127.127 0 0 0-.127.12v1.26c0 .067.053.12.127.12m3.926 1.814h1.414a.127.127 0 0 0 .12-.127V6.007a.127.127 0 0 0-.12-.127H7.353a.12.12 0 0 0-.126.12v1.267c0 .066.06.12.126.12m-1.953 0h1.413a.12.12 0 0 0 .12-.127V6.007a.12.12 0 0 0-.12-.127H5.4a.12.12 0 0 0-.12.12v1.267c0 .066.053.12.12.12m-1.973 0h1.406a.12.12 0 0 0 .127-.127V6.007a.12.12 0 0 0-.12-.127H3.427a.127.127 0 0 0-.127.127V7.26c0 .067.053.127.127.127m-1.947 0h1.413a.12.12 0 0 0 .12-.127V6.007a.12.12 0 0 0-.12-.127H1.48a.12.12 0 0 0-.127.12v1.267c0 .066.054.12.127.12m14.36-.794c-.04-.033-.447-.34-1.3-.34q-.342 0-.673.06A2.52 2.52 0 0 0 12.72 4.6l-.227-.133-.153.22a3 3 0 0 0-.4.953c-.16.647-.067 1.253.267 1.773a3.1 3.1 0 0 1-1.167.28H.507a.5.5 0 0 0-.507.5A7.6 7.6 0 0 0 .467 10.9a4.02 4.02 0 0 0 1.6 2.08c.786.487 2.066.76 3.52.76.653 0 1.306-.053 1.953-.173a8.2 8.2 0 0 0 2.547-.934 7 7 0 0 0 1.74-1.42c.833-.946 1.333-2 1.7-2.933h.153c.913 0 1.473-.367 1.787-.667.2-.2.366-.44.466-.706L16 6.72z"/>
  </g>
  <defs>
    <clipPath id="docker-a">
      <path fill="#fff" d="M0 0h16v16H0z"/>
    </clipPath>
  </defs>
</svg>
