<svg xmlns="http://www.w3.org/2000/svg" fill="none" viewBox="0 0 16 16">
  <g clip-path="url(#supabase-a)">
    <path fill="url(#supabase-b)" d="M9.264 15.586c-.394.51-1.192.23-1.201-.421l-.139-9.522h6.223c1.127 0 1.756 1.34 1.055 2.247z"/>
    <path fill="url(#supabase-c)" fill-opacity=".2" d="M9.264 15.586c-.394.51-1.192.23-1.201-.421l-.139-9.522h6.223c1.127 0 1.756 1.34 1.055 2.247z"/>
    <path fill="#3ECF8E" d="M6.733.263c.393-.51 1.191-.23 1.2.42l.062 9.523H1.85c-1.128 0-1.756-1.34-1.055-2.248z"/>
  </g>
  <defs>
    <linearGradient id="supabase-b" x1="7.924" x2="13.501" y1="7.754" y2="10.027" gradientUnits="userSpaceOnUse">
      <stop stop-color="#249361"/>
      <stop offset="1" stop-color="#3ECF8E"/>
    </linearGradient>
    <linearGradient id="supabase-c" x1="5.472" x2="8.108" y1="4.3" y2="9.123" gradientUnits="userSpaceOnUse">
      <stop/>
      <stop offset="1" stop-opacity="0"/>
    </linearGradient>
    <clipPath id="supabase-a">
      <path fill="#fff" d="M0 0h16v16H0z"/>
    </clipPath>
  </defs>
</svg>
